<?xml version="1.0" encoding="UTF-8"?>
<svg version="1.1" xmlns="http://www.w3.org/2000/svg" width="1024" height="1024">
<path d="M0 0 C337.92 0 675.84 0 1024 0 C1024 337.92 1024 675.84 1024 1024 C686.08 1024 348.16 1024 0 1024 C0 686.08 0 348.16 0 0 Z " fill="#FEFEFE" transform="translate(0,0)"/>
<path d="M0 0 C8.22196633 2.70939321 13.7362216 1.06700081 21.9375 -1.1875 C58.57283115 -11.25800485 100.83648761 -4.65980826 133.76171875 13.96142578 C163.37627922 31.4616443 183.28106585 57.13078709 192.78125 90.11328125 C199.58794613 118.44300264 192.73788665 147.93796661 177.8828125 172.53125 C174.8523474 177.24276555 171.48051849 181.52318181 167.8125 185.75 C167.1525 186.53117188 166.4925 187.31234375 165.8125 188.1171875 C161.55681429 193.05444787 157.0977325 197.89153214 151.8125 201.75 C151.1525 201.75 150.4925 201.75 149.8125 201.75 C152.80726568 219.65576683 159.19240225 233.63236036 171.4296875 247.11328125 C176.8390685 253.0990717 176.8390685 253.0990717 176.6875 256.8125 C175.77534297 259.87474146 175.28375617 260.84303545 172.8125 262.75 C166.24780116 263.89783599 159.74681412 262.33766421 153.5 260.375 C152.65115234 260.11315918 151.80230469 259.85131836 150.92773438 259.58154297 C136.56881535 254.93461808 117.5933273 247.91589603 107.57421875 236.11328125 C105.05482255 233.20226907 103.30909278 231.40534899 99.8125 229.75 C93.7740106 229.70961777 87.87347674 231.59661551 82.09033203 233.16503906 C77.36549781 234.37840485 72.66887006 234.61141156 67.8125 234.75 C66.71397705 234.78867187 66.71397705 234.78867187 65.59326172 234.828125 C47.96433516 235.38523111 31.31608195 233.39147725 14.390625 228.421875 C8.07006016 227.23504405 2.84039413 228.65368511 -3.1875 230.75 C-5.72996217 231.31649743 -8.25359746 231.8392783 -10.8125 232.3125 C-12.10414063 232.56128906 -13.39578125 232.81007813 -14.7265625 233.06640625 C-35.93990207 236.61135398 -59.37685948 236.58625509 -79.953125 229.84375 C-82.39359529 229.50669739 -82.39359529 229.50669739 -84.625 231.55859375 C-85.470625 232.42613281 -86.31625 233.29367187 -87.1875 234.1875 C-92.94437201 239.78819684 -99.15044681 243.85013589 -106.1875 247.75 C-106.79190918 248.08773437 -107.39631836 248.42546875 -108.01904297 248.7734375 C-120.46152871 255.63825722 -135.80942652 262.73863215 -150.25 263 C-151.10722656 263.02578125 -151.96445312 263.0515625 -152.84765625 263.078125 C-155.1875 262.75 -155.1875 262.75 -156.93359375 261.609375 C-158.80124985 258.83989118 -159.2160413 257.10971923 -159.1875 253.75 C-157.44805822 251.30570616 -155.82037721 249.37291869 -153.75 247.25 C-147.63161026 240.55474118 -143.25499304 233.86619859 -139.1875 225.75 C-138.66027344 224.71875 -138.13304687 223.6875 -137.58984375 222.625 C-134.4795452 215.97121369 -131.77529848 208.99606416 -134.1875 201.75 C-137.07310525 198.4050171 -140.20766796 195.69256255 -143.59375 192.875 C-157.65658956 181.06101538 -165.99054246 163.65079329 -172.1875 146.75 C-172.50589844 145.91726563 -172.82429688 145.08453125 -173.15234375 144.2265625 C-181.62036998 120.8868285 -178.45066345 93.76399122 -168.87109375 71.33203125 C-152.81089681 37.16219229 -123.91311626 14.32706699 -88.84765625 1.53125 C-61.13386124 -7.5125595 -27.85588485 -9.24250557 0 0 Z " fill="#D3B37B" transform="translate(503.1875,389.25)"/>
<path d="M0 0 C0.75031494 0.36351562 1.50062988 0.72703125 2.27368164 1.1015625 C28.9601146 14.26278043 50.44095658 35.80633274 60.09765625 64.21875 C66.70565846 86.38753162 65.58343436 111.3604704 54.71875 132.05078125 C48.88503713 142.41518506 42.00529753 150.92146615 33.8125 159.4375 C33.24144531 160.08332031 32.67039062 160.72914063 32.08203125 161.39453125 C22.49779143 171.91502072 8.55516651 178.56954522 -4.1875 184.4375 C-5.02023437 184.8603125 -5.85296875 185.283125 -6.7109375 185.71875 C-12.87819511 187.50861656 -18.33934237 184.7555229 -23.75 181.9375 C-24.44109863 181.58292725 -25.13219727 181.22835449 -25.84423828 180.86303711 C-37.06569039 174.99582072 -47.08156108 168.311932 -56.1875 159.4375 C-56.96867187 158.70660156 -57.74984375 157.97570312 -58.5546875 157.22265625 C-75.84479718 140.66024479 -85.88857736 117.01553835 -86.47265625 93.17553711 C-86.75668548 66.0329935 -75.75128288 43.48543856 -57.484375 23.73828125 C-47.40002835 13.63678435 -34.98043383 6.04869748 -22.1875 -0.125 C-21.48165771 -0.47175781 -20.77581543 -0.81851562 -20.04858398 -1.17578125 C-12.32412473 -4.76966624 -7.42338211 -3.66792603 0 0 Z " fill="#FDFEFD" transform="translate(523.1875,412.5625)"/>
<path d="M0 0 C1.71413086 -0.01836914 1.71413086 -0.01836914 3.46289062 -0.03710938 C11.41895057 -0.05060185 18.98854941 0.75782066 26.8125 2.1875 C23.51897344 4.85694295 20.24705931 7.23323348 16.625 9.4375 C11.00351778 12.97078694 5.90833807 16.94243008 0.8125 21.1875 C0.19761719 21.66703125 -0.41726563 22.1465625 -1.05078125 22.640625 C-19.99621682 37.79697346 -33.96456834 64.22165332 -37.1875 88.1875 C-37.46974636 92.72431422 -37.55917166 97.2462066 -37.55810547 101.78979492 C-37.56245755 103.85485755 -37.59883464 105.91773795 -37.63671875 107.98242188 C-37.71862256 117.66958587 -36.13717018 125.94975718 -33.1875 135.1875 C-32.94128906 135.99018311 -32.69507813 136.79286621 -32.44140625 137.61987305 C-22.56598416 168.52949257 0.0850273 188.60685368 26.8125 205.1875 C21.4333977 210.5666023 8.80818929 208.47141737 1.5 208.5 C0.79195221 208.50361542 0.08390442 208.50723083 -0.64559937 208.51095581 C-13.31669794 208.5369399 -25.11768105 207.21077298 -37.1875 203.1875 C-40.42960519 202.34962879 -40.42960519 202.34962879 -44.1875 203.1875 C-46.53297341 205.1710742 -48.53586487 207.36572093 -50.625 209.6171875 C-60.10676362 219.12785894 -74.36426186 227.2915849 -87.1875 231.1875 C-86.37345703 229.50333984 -86.37345703 229.50333984 -85.54296875 227.78515625 C-78.34617039 213.10684293 -78.34617039 213.10684293 -75.1875 197.1875 C-75.03861328 195.86878906 -75.03861328 195.86878906 -74.88671875 194.5234375 C-74.51913758 189.29081147 -74.71098194 186.01450755 -78.1875 181.9375 C-81.31485611 178.83521288 -84.68330488 176.0061377 -88.0234375 173.13671875 C-104.88399691 157.95004159 -116.58495144 136.33380632 -118.48925781 113.58227539 C-118.6225021 109.96568001 -118.65592418 106.36885375 -118.625 102.75 C-118.61597656 101.47809814 -118.60695313 100.20619629 -118.59765625 98.89575195 C-118.30631153 83.10952166 -113.79674705 70.83358985 -106.1875 57.1875 C-105.64222656 56.19878906 -105.09695313 55.21007812 -104.53515625 54.19140625 C-99.81981127 46.24795223 -93.65677133 39.71457238 -87.1875 33.1875 C-86.45789063 32.445 -85.72828125 31.7025 -84.9765625 30.9375 C-62.55201233 9.62988145 -30.2498116 0.01677749 0 0 Z " fill="#FEFEFD" transform="translate(460.1875,399.8125)"/>
<path d="M0 0 C0.93070313 0.76828125 1.86140625 1.5365625 2.8203125 2.328125 C19.90567649 17.08150337 32.20433407 37.61793682 36 60 C37.70641249 88.76597778 32.2498385 114.50177967 13.00195312 136.58447266 C3.81568053 146.89187935 3.81568053 146.89187935 -0.42578125 149.48046875 C-4.2582116 151.89436345 -6.63275419 153.45433904 -7.7109375 157.9921875 C-8.11605289 171.73494808 -3.90315402 184.31756126 2.609375 196.20703125 C4 199 4 199 4 202 C-10.90717337 195.53902171 -23.24994557 187.88705458 -35.109375 176.71484375 C-38.65774568 173.49638357 -41.28336236 173.77630477 -46 174 C-48.69124453 174.57919677 -51.29284764 175.20046574 -53.9375 175.9375 C-63.79631989 178.64365522 -73.15377737 179.18650542 -83.35375977 179.18530273 C-85.4294073 179.18749147 -87.50452399 179.20570723 -89.58007812 179.22460938 C-96.66899981 179.25358534 -103.14997494 178.91922075 -110 177 C-106.93053836 174.33979991 -103.74930938 172.22058785 -100.25 170.1875 C-73.29503247 154.23781507 -54.27646731 128.11332192 -46.46484375 97.93237305 C-44.74527 90.45606558 -44.61441128 83.08496533 -44.625 75.4375 C-44.62554382 74.77458954 -44.62608765 74.11167908 -44.62664795 73.42868042 C-44.6668357 62.76397717 -45.5448923 53.1069973 -49 43 C-49.20898926 42.37174316 -49.41797852 41.74348633 -49.63330078 41.09619141 C-54.47281551 26.83865476 -62.28248923 14.42727324 -72 3 C-72.763125 1.989375 -73.52625 0.97875 -74.3125 -0.0625 C-83.95179434 -10.59847289 -96.6690679 -18.93846839 -109 -26 C-108.67 -26.66 -108.34 -27.32 -108 -28 C-70.78770263 -35.16681283 -28.87499559 -24.27173542 0 0 Z " fill="#FEFEFD" transform="translate(646,429)"/>
<path d="M0 0 C3.03173828 1.35424805 3.03173828 1.35424805 6.0703125 3.26171875 C6.90183334 3.77453651 6.90183334 3.77453651 7.75015259 4.29771423 C9.55122975 5.41321554 11.33777498 6.54996395 13.125 7.6875 C14.38353584 8.47264275 15.64298735 9.25631952 16.90332031 10.03857422 C19.43259166 11.61152714 21.95642413 13.19264606 24.47558594 14.78173828 C28.38272188 17.24518447 32.31494433 19.66690575 36.25 22.08544922 C38.74719267 23.62327119 41.23765613 25.1714648 43.7265625 26.72265625 C47.64768588 29.1656322 51.58314038 31.58417173 55.5234375 33.99609375 C57.72406306 35.35139248 59.9245857 36.70685831 62.125 38.0625 C63.16366211 38.69430176 64.20232422 39.32610352 65.27246094 39.97705078 C66.23700195 40.57372559 67.20154297 41.17040039 68.1953125 41.78515625 C69.05141113 42.30988525 69.90750977 42.83461426 70.78955078 43.37524414 C73.09807871 45.07209121 74.50910464 46.56081002 76 49 C76.5 52.4375 76.5 52.4375 76 56 C71.93782546 60.99067158 66.6548199 63.78231545 61.125 66.9375 C59.13852542 68.0910757 57.1528739 69.24606968 55.16796875 70.40234375 C54.14751465 70.99515137 53.12706055 71.58795898 52.07568359 72.19873047 C47.16205242 75.07639127 42.2978044 78.03340684 37.4375 81 C36.02259277 81.86286621 36.02259277 81.86286621 34.57910156 82.74316406 C26.12111505 87.91048779 17.6934966 93.12663459 9.2734375 98.35546875 C8.52151123 98.81937012 7.76958496 99.28327148 6.99487305 99.76123047 C5.3748428 100.76723138 3.76912262 101.79625033 2.16796875 102.83203125 C-1.51413937 104.81572554 -3.85417413 104.52645408 -8 104 C-11.14097717 101.21577927 -12.24042102 98.95400357 -12.5146637 94.86376953 C-12.54138348 93.20365373 -12.54614721 91.54309474 -12.53344727 89.8828125 C-12.54206284 88.9732782 -12.55067841 88.0637439 -12.55955505 87.12664795 C-12.58222307 84.12580762 -12.57547498 81.12590044 -12.56640625 78.125 C-12.57164119 76.03661827 -12.57791719 73.94823891 -12.58518982 71.85986328 C-12.59559538 67.48523829 -12.59102977 63.11093857 -12.57641602 58.73632812 C-12.55922194 53.13044931 -12.58273081 47.52559484 -12.61790562 41.91983032 C-12.63986515 37.60808521 -12.6384417 33.29658579 -12.6301403 28.98480225 C-12.62932012 26.91793697 -12.63619637 24.85105378 -12.65091133 22.78424072 C-12.66833171 19.89458204 -12.65383587 17.00677179 -12.63110352 14.1171875 C-12.64279572 13.26404968 -12.65448792 12.41091187 -12.66653442 11.53192139 C-12.59752324 7.22032921 -12.37946762 5.49579123 -9.67512512 1.96244812 C-6.14603016 -0.62646472 -4.2966252 -0.62199605 0 0 Z " fill="#D4B47B" transform="translate(489,452)"/>
<path d="M0 0 C15.94550356 9.11171632 15.94550356 9.11171632 23.25 13.8125 C28.19728625 16.973351 33.15340111 20.11038212 38.1796875 23.14453125 C39.00952148 23.64557373 39.83935547 24.14661621 40.69433594 24.6628418 C42.28617236 25.62040591 43.88049169 26.5738574 45.47753906 27.52270508 C46.1887793 27.95091553 46.90001953 28.37912598 47.6328125 28.8203125 C48.26074707 29.19430176 48.88868164 29.56829102 49.53564453 29.95361328 C51 31 51 31 52 33 C51.07445312 33.53625 50.14890625 34.0725 49.1953125 34.625 C38.75173178 40.70867793 28.44279221 47.00015602 18.17626953 53.37695312 C17.11778809 54.03244141 16.05930664 54.68792969 14.96875 55.36328125 C13.56786133 56.23400269 13.56786133 56.23400269 12.13867188 57.12231445 C8.1477522 59.50985048 4.06532649 61.74148529 0 64 C0 42.88 0 21.76 0 0 Z " fill="#FDFDFB" transform="translate(492,472)"/>
<path d="M0 0 C0.99 0.495 0.99 0.495 2 1 C2.33 30.37 2.66 59.74 3 90 C4.32 90.33 5.64 90.66 7 91 C7.66 91.66 8.32 92.32 9 93 C6.75 93.3125 6.75 93.3125 4 93 C0.8318968 90.07476607 0.04583607 88.37564091 -0.48101807 84.0579071 C-0.49255421 82.49003752 -0.48211129 80.92190986 -0.45410156 79.35424805 C-0.45497772 78.06568153 -0.45497772 78.06568153 -0.45587158 76.75108337 C-0.4530921 73.92087945 -0.42200683 71.09173794 -0.390625 68.26171875 C-0.38316212 66.29588903 -0.37746941 64.33005186 -0.37347412 62.36421204 C-0.35822153 57.19700483 -0.31894275 52.0302493 -0.2746582 46.86322021 C-0.23369754 41.58791209 -0.21546139 36.31253078 -0.1953125 31.03710938 C-0.1524483 20.6912081 -0.08420133 10.34564165 0 0 Z " fill="#CFAF78" transform="translate(477,463)"/>
<path d="M0 0 C0.33 0 0.66 0 1 0 C1.33 13.53 1.66 27.06 2 41 C3.32 41.33 4.64 41.66 6 42 C6.66 42.66 7.32 43.32 8 44 C5.75 44.3125 5.75 44.3125 3 44 C0.68221701 41.9024221 -0.81175593 40.19775235 -1.3079834 37.04037476 C-1.36674071 34.67361039 -1.29339638 32.34485397 -1.171875 29.98046875 C-1.14401917 29.12189774 -1.11616333 28.26332672 -1.08746338 27.3787384 C-0.99438828 24.64721416 -0.87260936 21.91784216 -0.75 19.1875 C-0.681695 17.33144911 -0.61526744 15.47532812 -0.55078125 13.61914062 C-0.38893017 9.07832716 -0.20133541 4.53922721 0 0 Z " fill="#C8A66D" transform="translate(478,512)"/>
<path d="M0 0 C0.99 0.495 0.99 0.495 2 1 C2.67578125 3.265625 2.67578125 3.265625 3.3125 6.25 C4.68137029 12.17940707 6.72513948 17.59687878 9.109375 23.1875 C10.01824638 26.05762015 10.08509425 27.24756581 9 30 C3.85279508 20.84472568 -0.43611604 10.66061429 0 0 Z " fill="#CDAC72" transform="translate(437,518)"/>
<path d="M0 0 C0.55300781 0.25007813 1.10601562 0.50015625 1.67578125 0.7578125 C0.11489099 2.17625259 -1.44800765 3.59248275 -3.01171875 5.0078125 C-3.88183594 5.79671875 -4.75195312 6.585625 -5.6484375 7.3984375 C-8.14842738 9.60280814 -10.70367603 11.69915191 -13.32421875 13.7578125 C-12.88928829 8.96504937 -11.04240083 7.03613032 -7.51171875 3.8828125 C-6.63902344 3.08101563 -5.76632812 2.27921875 -4.8671875 1.453125 C-2.32421875 -0.2421875 -2.32421875 -0.2421875 0 0 Z " fill="#DABA81" transform="translate(466.32421875,417.2421875)"/>
<path d="M0 0 C0.66 0 1.32 0 2 0 C1.42118732 3.54822446 0.17307641 5.18422803 -2.37890625 7.671875 C-3.05244141 8.33574219 -3.72597656 8.99960937 -4.41992188 9.68359375 C-5.48049805 10.70646484 -5.48049805 10.70646484 -6.5625 11.75 C-7.27341797 12.44738281 -7.98433594 13.14476562 -8.71679688 13.86328125 C-10.47130714 15.5824658 -12.23243352 17.29425872 -14 19 C-14.66 18.67 -15.32 18.34 -16 18 C-15.5153125 17.53851562 -15.030625 17.07703125 -14.53125 16.6015625 C-9.79514548 11.99296849 -5.64961596 7.17797808 -1.6640625 1.90625 C-1.11492188 1.2771875 -0.56578125 0.648125 0 0 Z " fill="#C8A465" transform="translate(666,556)"/>
<path d="M0 0 C0.99 0.33 1.98 0.66 3 1 C-1.62 5.62 -6.24 10.24 -11 15 C-11.66 14.34 -12.32 13.68 -13 13 C-8.71 8.71 -4.42 4.42 0 0 Z " fill="#DCC18E" transform="translate(366,418)"/>
<path d="M0 0 C-2.60064355 1.32056025 -5.21662061 2.56207672 -7.890625 3.7265625 C-8.59960938 4.0359375 -9.30859375 4.3453125 -10.0390625 4.6640625 C-11.13347656 5.13972656 -11.13347656 5.13972656 -12.25 5.625 C-12.99507813 5.94984375 -13.74015625 6.2746875 -14.5078125 6.609375 C-16.33812611 7.40720401 -18.16900716 8.20373102 -20 9 C-20.33 8.34 -20.66 7.68 -21 7 C-18.44560598 5.62825139 -15.88335569 4.27774592 -13.3125 2.9375 C-12.59126953 2.54755859 -11.87003906 2.15761719 -11.12695312 1.75585938 C-4.4644465 -1.68187235 -4.4644465 -1.68187235 0 0 Z " fill="#DCC291" transform="translate(417,407)"/>
<path d="M0 0 C0.33 0 0.66 0 1 0 C1.33 4.29 1.66 8.58 2 13 C3.32 13.33 4.64 13.66 6 14 C6.66 14.66 7.32 15.32 8 16 C3.54676754 16.3610729 3.54676754 16.3610729 1.34375 14.90625 C-0.65709853 12.06783697 -0.28913696 9.73427756 -0.1875 6.3125 C-0.16042969 5.13300781 -0.13335937 3.95351563 -0.10546875 2.73828125 C-0.07066406 1.83464844 -0.03585937 0.93101562 0 0 Z " fill="#C5A164" transform="translate(478,540)"/>
<path d="M0 0 C-3.00440021 2.00293347 -4.70993945 2.49271626 -8.1875 3.125 C-9.08855469 3.29257812 -9.98960937 3.46015625 -10.91796875 3.6328125 C-11.60503906 3.75398438 -12.29210937 3.87515625 -13 4 C-13.33 3.34 -13.66 2.68 -14 2 C-4.58997722 -1.62870159 -4.58997722 -1.62870159 0 0 Z " fill="#DDC191" transform="translate(525,390)"/>
<path d="M0 0 C1.98 0.495 1.98 0.495 4 1 C2.02 1.99 2.02 1.99 0 3 C0 2.01 0 1.02 0 0 Z " fill="#E5CB9A" transform="translate(464,417)"/>
<path d="M0 0 C0.66 0.33 1.32 0.66 2 1 C0.92338719 2.4425402 -0.16160103 3.87883161 -1.25 5.3125 C-1.85328125 6.11300781 -2.4565625 6.91351562 -3.078125 7.73828125 C-4.90270136 9.88549612 -6.68297046 11.41601299 -9 13 C-7.50923566 9.7173068 -5.61379679 7.06922559 -3.375 4.25 C-2.74335937 3.45078125 -2.11171875 2.6515625 -1.4609375 1.828125 C-0.97882812 1.22484375 -0.49671875 0.6215625 0 0 Z " fill="#C7A464" transform="translate(570,556)"/>
<path d="M0 0 C0.66 0.33 1.32 0.66 2 1 C0.9015258 2.46262592 -0.2040036 3.91995503 -1.3125 5.375 C-1.92738281 6.18710937 -2.54226563 6.99921875 -3.17578125 7.8359375 C-5 10 -5 10 -8 12 C-6.59023295 8.96147295 -4.91129772 6.4060405 -2.875 3.75 C-2.06675781 2.69039062 -2.06675781 2.69039062 -1.2421875 1.609375 C-0.83226562 1.07828125 -0.42234375 0.5471875 0 0 Z " fill="#C09D5C" transform="translate(358,626)"/>
<path d="M0 0 C4.875 4.625 4.875 4.625 6 8 C5.01 8 4.02 8 3 8 C0 2.25 0 2.25 0 0 Z " fill="#D7BB85" transform="translate(677,441)"/>
<path d="M0 0 C0 0.66 0 1.32 0 2 C-2.90548882 4.04169485 -4.40142046 5 -8 5 C-8 4.34 -8 3.68 -8 3 C-2.25 0 -2.25 0 0 0 Z " fill="#D2AD71" transform="translate(563,509)"/>
</svg>
